<svg xmlns="http://www.w3.org/2000/svg" xml:space="preserve" xmlns:xlink="http://www.w3.org/1999/xlink" style="max-width: 100%;height: auto;" width="984" height="984" viewBox="0 0 984 984">
<rect width="984" height="984" fill="#ffffff" x="0" y="0"></rect>
<g fill="#236436">
<g transform="translate(240,48) scale(4.12)"><path d="M6,6H0V3c0-1.7,1.3-3,3-3l3,0V6z"></path></g>
<g transform="translate(264,48) scale(4.12)"><path d="M6,6H0V0l3,0c1.7,0,3,1.3,3,3V6z"></path></g>
<g transform="translate(312,48) scale(4.12)"><path d="M6,6H3C1.3,6,0,4.7,0,3v0c0-1.7,1.3-3,3-3h3C6,0,6,6,6,6z"></path></g>
<g transform="translate(336,48) scale(4.12)"><path d="M3,6H0V0l3,0c1.7,0,3,1.3,3,3v0C6,4.7,4.7,6,3,6z"></path></g>
<g transform="translate(432,48) scale(4.12)"><circle cx="3" cy="3" r="3"></circle></g>
<g transform="translate(504,48) scale(4.12)"><path d="M6,6H3C1.3,6,0,4.7,0,3v0c0-1.7,1.3-3,3-3h3C6,0,6,6,6,6z"></path></g>
<g transform="translate(528,48) scale(4.12)"><rect width="6" height="6"></rect></g>
<g transform="translate(552,48) scale(4.12)"><path d="M3,6H0V0l3,0c1.7,0,3,1.3,3,3v0C6,4.7,4.7,6,3,6z"></path></g>
<g transform="translate(624,48) scale(4.12)"><path d="M6,6H0V3c0-1.7,1.3-3,3-3l3,0V6z"></path></g>
<g transform="translate(648,48) scale(4.12)"><rect width="6" height="6"></rect></g>
<g transform="translate(672,48) scale(4.12)"><path d="M6,6H0V0l3,0c1.7,0,3,1.3,3,3V6z"></path></g>
<g transform="translate(720,48) scale(4.12)"><path d="M6,6H0V3c0-1.7,1.3-3,3-3h0c1.7,0,3,1.3,3,3V6z"></path></g>
<g transform="translate(240,72) scale(4.12)"><rect width="6" height="6"></rect></g>
<g transform="translate(264,72) scale(4.12)"><path d="M3,6H0V0l6,0v3C6,4.7,4.7,6,3,6z"></path></g>
<g transform="translate(360,72) scale(4.12)"><path d="M6,6H0V3c0-1.7,1.3-3,3-3l3,0V6z"></path></g>
<g transform="translate(384,72) scale(4.12)"><path d="M6,6H0V0l3,0c1.7,0,3,1.3,3,3V6z"></path></g>
<g transform="translate(456,72) scale(4.12)"><path d="M6,6H0V3c0-1.7,1.3-3,3-3l3,0V6z"></path></g>
<g transform="translate(480,72) scale(4.12)"><path d="M3,6H0V0l3,0c1.7,0,3,1.3,3,3v0C6,4.7,4.7,6,3,6z"></path></g>
<g transform="translate(576,72) scale(4.12)"><path d="M6,6H0V3c0-1.7,1.3-3,3-3h0c1.7,0,3,1.3,3,3V6z"></path></g>
<g transform="translate(624,72) scale(4.12)"><path d="M3,6L3,6C1.3,6,0,4.7,0,3V0h6v3C6,4.7,4.7,6,3,6z"></path></g>
<g transform="translate(672,72) scale(4.12)"><rect width="6" height="6"></rect></g>
<g transform="translate(696,72) scale(4.12)"><rect width="6" height="6"></rect></g>
<g transform="translate(720,72) scale(4.12)"><path d="M3,6H0V0l6,0v3C6,4.7,4.7,6,3,6z"></path></g>
<g transform="translate(240,96) scale(4.12)"><path d="M3,6L3,6C1.3,6,0,4.7,0,3V0h6v3C6,4.7,4.7,6,3,6z"></path></g>
<g transform="translate(288,96) scale(4.12)"><circle cx="3" cy="3" r="3"></circle></g>
<g transform="translate(360,96) scale(4.12)"><path d="M6,6H3C1.3,6,0,4.7,0,3V0l6,0V6z"></path></g>
<g transform="translate(384,96) scale(4.12)"><path d="M3,6H0V0l6,0v3C6,4.7,4.7,6,3,6z"></path></g>
<g transform="translate(432,96) scale(4.12)"><path d="M6,6H0V3c0-1.7,1.3-3,3-3l3,0V6z"></path></g>
<g transform="translate(456,96) scale(4.12)"><rect width="6" height="6"></rect></g>
<g transform="translate(504,96) scale(4.12)"><path d="M6,6H0V3c0-1.7,1.3-3,3-3l3,0V6z"></path></g>
<g transform="translate(528,96) scale(4.12)"><rect width="6" height="6"></rect></g>
<g transform="translate(552,96) scale(4.12)"><rect width="6" height="6"></rect></g>
<g transform="translate(576,96) scale(4.12)"><path d="M3,6H0V0l6,0v3C6,4.7,4.7,6,3,6z"></path></g>
<g transform="translate(672,96) scale(4.12)"><path d="M6,6H3C1.3,6,0,4.7,0,3V0l6,0V6z"></path></g>
<g transform="translate(696,96) scale(4.12)"><rect width="6" height="6"></rect></g>
<g transform="translate(264,120) scale(4.12)"><path d="M6,6H0V3c0-1.7,1.3-3,3-3h0c1.7,0,3,1.3,3,3V6z"></path></g>
<g transform="translate(312,120) scale(4.12)"><path d="M6,6H3C1.3,6,0,4.7,0,3v0c0-1.7,1.3-3,3-3h3C6,0,6,6,6,6z"></path></g>
<g transform="translate(336,120) scale(4.12)"><path d="M6,6H0V0l3,0c1.7,0,3,1.3,3,3V6z"></path></g>
<g transform="translate(408,120) scale(4.12)"><path d="M6,6H3C1.3,6,0,4.7,0,3v0c0-1.7,1.3-3,3-3h3C6,0,6,6,6,6z"></path></g>
<g transform="translate(432,120) scale(4.12)"><rect width="6" height="6"></rect></g>
<g transform="translate(456,120) scale(4.12)"><path d="M3,6H0V0l6,0v3C6,4.7,4.7,6,3,6z"></path></g>
<g transform="translate(504,120) scale(4.12)"><rect width="6" height="6"></rect></g>
<g transform="translate(600,120) scale(4.12)"><path d="M6,6H0V3c0-1.7,1.3-3,3-3h0c1.7,0,3,1.3,3,3V6z"></path></g>
<g transform="translate(648,120) scale(4.12)"><path d="M6,6H0V3c0-1.7,1.3-3,3-3h0c1.7,0,3,1.3,3,3V6z"></path></g>
<g transform="translate(696,120) scale(4.12)"><path d="M3,6L3,6C1.3,6,0,4.7,0,3V0h6v3C6,4.7,4.7,6,3,6z"></path></g>
<g transform="translate(264,144) scale(4.12)"><path d="M6,6H3C1.3,6,0,4.7,0,3V0l6,0V6z"></path></g>
<g transform="translate(288,144) scale(4.12)"><path d="M6,6H0V0l3,0c1.7,0,3,1.3,3,3V6z"></path></g>
<g transform="translate(336,144) scale(4.12)"><rect width="6" height="6"></rect></g>
<g transform="translate(480,144) scale(4.12)"><path d="M6,6H3C1.3,6,0,4.7,0,3v0c0-1.7,1.3-3,3-3h3C6,0,6,6,6,6z"></path></g>
<g transform="translate(504,144) scale(4.12)"><rect width="6" height="6"></rect></g>
<g transform="translate(528,144) scale(4.12)"><rect width="6" height="6"></rect></g>
<g transform="translate(552,144) scale(4.12)"><path d="M3,6H0V0l3,0c1.7,0,3,1.3,3,3v0C6,4.7,4.7,6,3,6z"></path></g>
<g transform="translate(600,144) scale(4.12)"><rect width="6" height="6"></rect></g>
<g transform="translate(624,144) scale(4.12)"><rect width="6" height="6"></rect></g>
<g transform="translate(648,144) scale(4.12)"><rect width="6" height="6"></rect></g>
<g transform="translate(240,168) scale(4.12)"><path d="M6,6H0V3c0-1.7,1.3-3,3-3h0c1.7,0,3,1.3,3,3V6z"></path></g>
<g transform="translate(288,168) scale(4.12)"><rect width="6" height="6"></rect></g>
<g transform="translate(312,168) scale(4.12)"><rect width="6" height="6"></rect></g>
<g transform="translate(336,168) scale(4.12)"><rect width="6" height="6"></rect></g>
<g transform="translate(528,168) scale(4.12)"><rect width="6" height="6"></rect></g>
<g transform="translate(600,168) scale(4.12)"><path d="M3,6L3,6C1.3,6,0,4.7,0,3V0h6v3C6,4.7,4.7,6,3,6z"></path></g>
<g transform="translate(648,168) scale(4.12)"><path d="M6,6H3C1.3,6,0,4.7,0,3V0l6,0V6z"></path></g>
<g transform="translate(672,168) scale(4.12)"><rect width="6" height="6"></rect></g>
<g transform="translate(696,168) scale(4.12)"><rect width="6" height="6"></rect></g>
<g transform="translate(720,168) scale(4.12)"><path d="M6,6H0V0l3,0c1.7,0,3,1.3,3,3V6z"></path></g>
<g transform="translate(240,192) scale(4.12)"><rect width="6" height="6"></rect></g>
<g transform="translate(288,192) scale(4.12)"><rect width="6" height="6"></rect></g>
<g transform="translate(336,192) scale(4.12)"><path d="M3,6L3,6C1.3,6,0,4.7,0,3V0h6v3C6,4.7,4.7,6,3,6z"></path></g>
<g transform="translate(384,192) scale(4.12)"><circle cx="3" cy="3" r="3"></circle></g>
<g transform="translate(432,192) scale(4.12)"><circle cx="3" cy="3" r="3"></circle></g>
<g transform="translate(480,192) scale(4.12)"><path d="M6,6H0V3c0-1.7,1.3-3,3-3h0c1.7,0,3,1.3,3,3V6z"></path></g>
<g transform="translate(528,192) scale(4.12)"><rect width="6" height="6"></rect></g>
<g transform="translate(576,192) scale(4.12)"><path d="M6,6H0V3c0-1.7,1.3-3,3-3h0c1.7,0,3,1.3,3,3V6z"></path></g>
<g transform="translate(624,192) scale(4.12)"><circle cx="3" cy="3" r="3"></circle></g>
<g transform="translate(672,192) scale(4.12)"><path d="M3,6L3,6C1.3,6,0,4.7,0,3V0h6v3C6,4.7,4.7,6,3,6z"></path></g>
<g transform="translate(720,192) scale(4.12)"><rect width="6" height="6"></rect></g>
<g transform="translate(240,216) scale(4.12)"><rect width="6" height="6"></rect></g>
<g transform="translate(264,216) scale(4.12)"><rect width="6" height="6"></rect></g>
<g transform="translate(288,216) scale(4.12)"><rect width="6" height="6"></rect></g>
<g transform="translate(360,216) scale(4.12)"><circle cx="3" cy="3" r="3"></circle></g>
<g transform="translate(456,216) scale(4.12)"><path d="M6,6H3C1.3,6,0,4.7,0,3v0c0-1.7,1.3-3,3-3h3C6,0,6,6,6,6z"></path></g>
<g transform="translate(480,216) scale(4.12)"><rect width="6" height="6"></rect></g>
<g transform="translate(528,216) scale(4.12)"><rect width="6" height="6"></rect></g>
<g transform="translate(552,216) scale(4.12)"><rect width="6" height="6"></rect></g>
<g transform="translate(576,216) scale(4.12)"><rect width="6" height="6"></rect></g>
<g transform="translate(600,216) scale(4.12)"><path d="M3,6H0V0l3,0c1.7,0,3,1.3,3,3v0C6,4.7,4.7,6,3,6z"></path></g>
<g transform="translate(648,216) scale(4.12)"><circle cx="3" cy="3" r="3"></circle></g>
<g transform="translate(720,216) scale(4.12)"><rect width="6" height="6"></rect></g>
<g transform="translate(96,240) scale(4.12)"><path d="M6,6H0V3c0-1.7,1.3-3,3-3l3,0V6z"></path></g>
<g transform="translate(120,240) scale(4.12)"><rect width="6" height="6"></rect></g>
<g transform="translate(144,240) scale(4.12)"><path d="M6,6H0V0l3,0c1.7,0,3,1.3,3,3V6z"></path></g>
<g transform="translate(192,240) scale(4.12)"><circle cx="3" cy="3" r="3"></circle></g>
<g transform="translate(240,240) scale(4.12)"><rect width="6" height="6"></rect></g>
<g transform="translate(288,240) scale(4.12)"><path d="M3,6L3,6C1.3,6,0,4.7,0,3V0h6v3C6,4.7,4.7,6,3,6z"></path></g>
<g transform="translate(408,240) scale(4.12)"><path d="M6,6H3C1.3,6,0,4.7,0,3v0c0-1.7,1.3-3,3-3h3C6,0,6,6,6,6z"></path></g>
<g transform="translate(432,240) scale(4.12)"><path d="M6,6H0V0l3,0c1.7,0,3,1.3,3,3V6z"></path></g>
<g transform="translate(480,240) scale(4.12)"><rect width="6" height="6"></rect></g>
<g transform="translate(528,240) scale(4.12)"><path d="M6,6H3C1.3,6,0,4.7,0,3V0l6,0V6z"></path></g>
<g transform="translate(552,240) scale(4.12)"><rect width="6" height="6"></rect></g>
<g transform="translate(576,240) scale(4.12)"><rect width="6" height="6"></rect></g>
<g transform="translate(672,240) scale(4.12)"><circle cx="3" cy="3" r="3"></circle></g>
<g transform="translate(720,240) scale(4.12)"><path d="M6,6H3C1.3,6,0,4.7,0,3V0l6,0V6z"></path></g>
<g transform="translate(744,240) scale(4.12)"><rect width="6" height="6"></rect></g>
<g transform="translate(768,240) scale(4.12)"><rect width="6" height="6"></rect></g>
<g transform="translate(792,240) scale(4.12)"><path d="M6,6H0V0l3,0c1.7,0,3,1.3,3,3V6z"></path></g>
<g transform="translate(864,240) scale(4.12)"><path d="M6,6H3C1.3,6,0,4.7,0,3v0c0-1.7,1.3-3,3-3h3C6,0,6,6,6,6z"></path></g>
<g transform="translate(888,240) scale(4.12)"><rect width="6" height="6"></rect></g>
<g transform="translate(912,240) scale(4.12)"><path d="M3,6H0V0l3,0c1.7,0,3,1.3,3,3v0C6,4.7,4.7,6,3,6z"></path></g>
<g transform="translate(48,264) scale(4.12)"><path d="M6,6H0V3c0-1.7,1.3-3,3-3l3,0V6z"></path></g>
<g transform="translate(72,264) scale(4.12)"><rect width="6" height="6"></rect></g>
<g transform="translate(96,264) scale(4.12)"><path d="M3,6H0V0l6,0v3C6,4.7,4.7,6,3,6z"></path></g>
<g transform="translate(144,264) scale(4.12)"><rect width="6" height="6"></rect></g>
<g transform="translate(168,264) scale(4.12)"><path d="M3,6H0V0l3,0c1.7,0,3,1.3,3,3v0C6,4.7,4.7,6,3,6z"></path></g>
<g transform="translate(240,264) scale(4.12)"><rect width="6" height="6"></rect></g>
<g transform="translate(264,264) scale(4.12)"><path d="M3,6H0V0l3,0c1.7,0,3,1.3,3,3v0C6,4.7,4.7,6,3,6z"></path></g>
<g transform="translate(432,264) scale(4.12)"><path d="M3,6L3,6C1.3,6,0,4.7,0,3V0h6v3C6,4.7,4.7,6,3,6z"></path></g>
<g transform="translate(480,264) scale(4.12)"><path d="M3,6L3,6C1.3,6,0,4.7,0,3V0h6v3C6,4.7,4.7,6,3,6z"></path></g>
<g transform="translate(552,264) scale(4.12)"><path d="M6,6H3C1.3,6,0,4.7,0,3V0l6,0V6z"></path></g>
<g transform="translate(576,264) scale(4.12)"><rect width="6" height="6"></rect></g>
<g transform="translate(648,264) scale(4.12)"><path d="M6,6H0V3c0-1.7,1.3-3,3-3h0c1.7,0,3,1.3,3,3V6z"></path></g>
<g transform="translate(696,264) scale(4.12)"><path d="M6,6H0V3c0-1.7,1.3-3,3-3h0c1.7,0,3,1.3,3,3V6z"></path></g>
<g transform="translate(768,264) scale(4.12)"><rect width="6" height="6"></rect></g>
<g transform="translate(792,264) scale(4.12)"><rect width="6" height="6"></rect></g>
<g transform="translate(816,264) scale(4.12)"><rect width="6" height="6"></rect></g>
<g transform="translate(840,264) scale(4.12)"><path d="M6,6H0V0l3,0c1.7,0,3,1.3,3,3V6z"></path></g>
<g transform="translate(888,264) scale(4.12)"><rect width="6" height="6"></rect></g>
<g transform="translate(48,288) scale(4.12)"><rect width="6" height="6"></rect></g>
<g transform="translate(120,288) scale(4.12)"><path d="M6,6H3C1.3,6,0,4.7,0,3v0c0-1.7,1.3-3,3-3h3C6,0,6,6,6,6z"></path></g>
<g transform="translate(144,288) scale(4.12)"><rect width="6" height="6"></rect></g>
<g transform="translate(192,288) scale(4.12)"><circle cx="3" cy="3" r="3"></circle></g>
<g transform="translate(240,288) scale(4.12)"><path d="M3,6L3,6C1.3,6,0,4.7,0,3V0h6v3C6,4.7,4.7,6,3,6z"></path></g>
<g transform="translate(288,288) scale(4.12)"><circle cx="3" cy="3" r="3"></circle></g>
<g transform="translate(408,288) scale(4.12)"><path d="M6,6H0V3c0-1.7,1.3-3,3-3h0c1.7,0,3,1.3,3,3V6z"></path></g>
<g transform="translate(528,288) scale(4.12)"><path d="M6,6H0V3c0-1.7,1.3-3,3-3h0c1.7,0,3,1.3,3,3V6z"></path></g>
<g transform="translate(576,288) scale(4.12)"><rect width="6" height="6"></rect></g>
<g transform="translate(600,288) scale(4.12)"><rect width="6" height="6"></rect></g>
<g transform="translate(624,288) scale(4.12)"><rect width="6" height="6"></rect></g>
<g transform="translate(648,288) scale(4.12)"><rect width="6" height="6"></rect></g>
<g transform="translate(672,288) scale(4.12)"><rect width="6" height="6"></rect></g>
<g transform="translate(696,288) scale(4.12)"><rect width="6" height="6"></rect></g>
<g transform="translate(720,288) scale(4.12)"><path d="M3,6H0V0l3,0c1.7,0,3,1.3,3,3v0C6,4.7,4.7,6,3,6z"></path></g>
<g transform="translate(768,288) scale(4.12)"><rect width="6" height="6"></rect></g>
<g transform="translate(816,288) scale(4.12)"><rect width="6" height="6"></rect></g>
<g transform="translate(840,288) scale(4.12)"><rect width="6" height="6"></rect></g>
<g transform="translate(888,288) scale(4.12)"><path d="M6,6H3C1.3,6,0,4.7,0,3V0l6,0V6z"></path></g>
<g transform="translate(912,288) scale(4.12)"><path d="M3,6H0V0l3,0c1.7,0,3,1.3,3,3v0C6,4.7,4.7,6,3,6z"></path></g>
<g transform="translate(48,312) scale(4.12)"><rect width="6" height="6"></rect></g>
<g transform="translate(144,312) scale(4.12)"><rect width="6" height="6"></rect></g>
<g transform="translate(216,312) scale(4.12)"><path d="M6,6H0V3c0-1.7,1.3-3,3-3h0c1.7,0,3,1.3,3,3V6z"></path></g>
<g transform="translate(312,312) scale(4.12)"><circle cx="3" cy="3" r="3"></circle></g>
<g transform="translate(384,312) scale(4.12)"><path d="M6,6H0V3c0-1.7,1.3-3,3-3l3,0V6z"></path></g>
<g transform="translate(408,312) scale(4.12)"><rect width="6" height="6"></rect></g>
<g transform="translate(432,312) scale(4.12)"><rect width="6" height="6"></rect></g>
<g transform="translate(456,312) scale(4.12)"><rect width="6" height="6"></rect></g>
<g transform="translate(480,312) scale(4.12)"><path d="M3,6H0V0l3,0c1.7,0,3,1.3,3,3v0C6,4.7,4.7,6,3,6z"></path></g>
<g transform="translate(528,312) scale(4.12)"><path d="M3,6L3,6C1.3,6,0,4.7,0,3V0h6v3C6,4.7,4.7,6,3,6z"></path></g>
<g transform="translate(576,312) scale(4.12)"><rect width="6" height="6"></rect></g>
<g transform="translate(600,312) scale(4.12)"><rect width="6" height="6"></rect></g>
<g transform="translate(624,312) scale(4.12)"><path d="M3,6H0V0l6,0v3C6,4.7,4.7,6,3,6z"></path></g>
<g transform="translate(672,312) scale(4.12)"><rect width="6" height="6"></rect></g>
<g transform="translate(696,312) scale(4.12)"><rect width="6" height="6"></rect></g>
<g transform="translate(768,312) scale(4.12)"><rect width="6" height="6"></rect></g>
<g transform="translate(792,312) scale(4.12)"><rect width="6" height="6"></rect></g>
<g transform="translate(816,312) scale(4.12)"><rect width="6" height="6"></rect></g>
<g transform="translate(840,312) scale(4.12)"><rect width="6" height="6"></rect></g>
<g transform="translate(48,336) scale(4.12)"><path d="M3,6L3,6C1.3,6,0,4.7,0,3V0h6v3C6,4.7,4.7,6,3,6z"></path></g>
<g transform="translate(144,336) scale(4.12)"><path d="M6,6H3C1.3,6,0,4.7,0,3V0l6,0V6z"></path></g>
<g transform="translate(168,336) scale(4.12)"><rect width="6" height="6"></rect></g>
<g transform="translate(192,336) scale(4.12)"><rect width="6" height="6"></rect></g>
<g transform="translate(216,336) scale(4.12)"><rect width="6" height="6"></rect></g>
<g transform="translate(240,336) scale(4.12)"><path d="M3,6H0V0l3,0c1.7,0,3,1.3,3,3v0C6,4.7,4.7,6,3,6z"></path></g>
<g transform="translate(336,336) scale(4.12)"><path d="M6,6H0V3c0-1.7,1.3-3,3-3h0c1.7,0,3,1.3,3,3V6z"></path></g>
<g transform="translate(384,336) scale(4.12)"><rect width="6" height="6"></rect></g>
<g transform="translate(408,336) scale(4.12)"><rect width="6" height="6"></rect></g>
<g transform="translate(432,336) scale(4.12)"><rect width="6" height="6"></rect></g>
<g transform="translate(504,336) scale(4.12)"><path d="M6,6H0V3c0-1.7,1.3-3,3-3h0c1.7,0,3,1.3,3,3V6z"></path></g>
<g transform="translate(576,336) scale(4.12)"><path d="M3,6L3,6C1.3,6,0,4.7,0,3V0h6v3C6,4.7,4.7,6,3,6z"></path></g>
<g transform="translate(648,336) scale(4.12)"><path d="M6,6H0V3c0-1.7,1.3-3,3-3l3,0V6z"></path></g>
<g transform="translate(672,336) scale(4.12)"><rect width="6" height="6"></rect></g>
<g transform="translate(696,336) scale(4.12)"><rect width="6" height="6"></rect></g>
<g transform="translate(720,336) scale(4.12)"><rect width="6" height="6"></rect></g>
<g transform="translate(744,336) scale(4.12)"><rect width="6" height="6"></rect></g>
<g transform="translate(768,336) scale(4.12)"><rect width="6" height="6"></rect></g>
<g transform="translate(792,336) scale(4.12)"><rect width="6" height="6"></rect></g>
<g transform="translate(816,336) scale(4.12)"><rect width="6" height="6"></rect></g>
<g transform="translate(840,336) scale(4.12)"><rect width="6" height="6"></rect></g>
<g transform="translate(888,336) scale(4.12)"><circle cx="3" cy="3" r="3"></circle></g>
<g transform="translate(72,360) scale(4.12)"><circle cx="3" cy="3" r="3"></circle></g>
<g transform="translate(264,360) scale(4.12)"><path d="M6,6H0V3c0-1.7,1.3-3,3-3h0c1.7,0,3,1.3,3,3V6z"></path></g>
<g transform="translate(336,360) scale(4.12)"><rect width="6" height="6"></rect></g>
<g transform="translate(360,360) scale(4.12)"><rect width="6" height="6"></rect></g>
<g transform="translate(384,360) scale(4.12)"><path d="M3,6H0V0l6,0v3C6,4.7,4.7,6,3,6z"></path></g>
<g transform="translate(432,360) scale(4.12)"><rect width="6" height="6"></rect></g>
<g transform="translate(480,360) scale(4.12)"><path d="M6,6H3C1.3,6,0,4.7,0,3v0c0-1.7,1.3-3,3-3h3C6,0,6,6,6,6z"></path></g>
<g transform="translate(504,360) scale(4.12)"><path d="M3,6H0V0l6,0v3C6,4.7,4.7,6,3,6z"></path></g>
<g transform="translate(624,360) scale(4.12)"><path d="M6,6H3C1.3,6,0,4.7,0,3v0c0-1.7,1.3-3,3-3h3C6,0,6,6,6,6z"></path></g>
<g transform="translate(648,360) scale(4.12)"><path d="M3,6H0V0l6,0v3C6,4.7,4.7,6,3,6z"></path></g>
<g transform="translate(744,360) scale(4.12)"><rect width="6" height="6"></rect></g>
<g transform="translate(840,360) scale(4.12)"><rect width="6" height="6"></rect></g>
<g transform="translate(864,360) scale(4.12)"><path d="M3,6H0V0l3,0c1.7,0,3,1.3,3,3v0C6,4.7,4.7,6,3,6z"></path></g>
<g transform="translate(48,384) scale(4.12)"><path d="M6,6H0V3c0-1.7,1.3-3,3-3h0c1.7,0,3,1.3,3,3V6z"></path></g>
<g transform="translate(192,384) scale(4.12)"><circle cx="3" cy="3" r="3"></circle></g>
<g transform="translate(240,384) scale(4.12)"><path d="M6,6H0V3c0-1.7,1.3-3,3-3l3,0V6z"></path></g>
<g transform="translate(264,384) scale(4.12)"><rect width="6" height="6"></rect></g>
<g transform="translate(312,384) scale(4.12)"><path d="M6,6H0V3c0-1.7,1.3-3,3-3l3,0V6z"></path></g>
<g transform="translate(336,384) scale(4.12)"><rect width="6" height="6"></rect></g>
<g transform="translate(432,384) scale(4.12)"><path d="M3,6L3,6C1.3,6,0,4.7,0,3V0h6v3C6,4.7,4.7,6,3,6z"></path></g>
<g transform="translate(552,384) scale(4.12)"><path d="M6,6H0V3c0-1.7,1.3-3,3-3h0c1.7,0,3,1.3,3,3V6z"></path></g>
<g transform="translate(696,384) scale(4.12)"><path d="M6,6H0V3c0-1.7,1.3-3,3-3h0c1.7,0,3,1.3,3,3V6z"></path></g>
<g transform="translate(744,384) scale(4.12)"><rect width="6" height="6"></rect></g>
<g transform="translate(768,384) scale(4.12)"><rect width="6" height="6"></rect></g>
<g transform="translate(792,384) scale(4.12)"><rect width="6" height="6"></rect></g>
<g transform="translate(816,384) scale(4.12)"><rect width="6" height="6"></rect></g>
<g transform="translate(840,384) scale(4.12)"><path d="M3,6H0V0l6,0v3C6,4.7,4.7,6,3,6z"></path></g>
<g transform="translate(912,384) scale(4.12)"><circle cx="3" cy="3" r="3"></circle></g>
<g transform="translate(48,408) scale(4.12)"><rect width="6" height="6"></rect></g>
<g transform="translate(72,408) scale(4.12)"><rect width="6" height="6"></rect></g>
<g transform="translate(96,408) scale(4.12)"><path d="M3,6H0V0l3,0c1.7,0,3,1.3,3,3v0C6,4.7,4.7,6,3,6z"></path></g>
<g transform="translate(144,408) scale(4.12)"><path d="M6,6H0V3c0-1.7,1.3-3,3-3l3,0V6z"></path></g>
<g transform="translate(168,408) scale(4.12)"><path d="M3,6H0V0l3,0c1.7,0,3,1.3,3,3v0C6,4.7,4.7,6,3,6z"></path></g>
<g transform="translate(240,408) scale(4.12)"><rect width="6" height="6"></rect></g>
<g transform="translate(264,408) scale(4.12)"><rect width="6" height="6"></rect></g>
<g transform="translate(288,408) scale(4.12)"><rect width="6" height="6"></rect></g>
<g transform="translate(312,408) scale(4.12)"><rect width="6" height="6"></rect></g>
<g transform="translate(336,408) scale(4.12)"><rect width="6" height="6"></rect></g>
<g transform="translate(360,408) scale(4.12)"><path d="M3,6H0V0l3,0c1.7,0,3,1.3,3,3v0C6,4.7,4.7,6,3,6z"></path></g>
<g transform="translate(408,408) scale(4.12)"><path d="M6,6H0V3c0-1.7,1.3-3,3-3h0c1.7,0,3,1.3,3,3V6z"></path></g>
<g transform="translate(456,408) scale(4.12)"><circle cx="3" cy="3" r="3"></circle></g>
<g transform="translate(552,408) scale(4.12)"><path d="M3,6L3,6C1.3,6,0,4.7,0,3V0h6v3C6,4.7,4.7,6,3,6z"></path></g>
<g transform="translate(600,408) scale(4.12)"><path d="M6,6H0V3c0-1.7,1.3-3,3-3l3,0V6z"></path></g>
<g transform="translate(624,408) scale(4.12)"><path d="M3,6H0V0l3,0c1.7,0,3,1.3,3,3v0C6,4.7,4.7,6,3,6z"></path></g>
<g transform="translate(672,408) scale(4.12)"><path d="M6,6H0V3c0-1.7,1.3-3,3-3l3,0V6z"></path></g>
<g transform="translate(696,408) scale(4.12)"><rect width="6" height="6"></rect></g>
<g transform="translate(720,408) scale(4.12)"><rect width="6" height="6"></rect></g>
<g transform="translate(744,408) scale(4.12)"><rect width="6" height="6"></rect></g>
<g transform="translate(768,408) scale(4.12)"><rect width="6" height="6"></rect></g>
<g transform="translate(792,408) scale(4.12)"><rect width="6" height="6"></rect></g>
<g transform="translate(816,408) scale(4.12)"><rect width="6" height="6"></rect></g>
<g transform="translate(888,408) scale(4.12)"><path d="M6,6H0V3c0-1.7,1.3-3,3-3h0c1.7,0,3,1.3,3,3V6z"></path></g>
<g transform="translate(48,432) scale(4.12)"><rect width="6" height="6"></rect></g>
<g transform="translate(144,432) scale(4.12)"><path d="M3,6L3,6C1.3,6,0,4.7,0,3V0h6v3C6,4.7,4.7,6,3,6z"></path></g>
<g transform="translate(192,432) scale(4.12)"><path d="M6,6H3C1.3,6,0,4.7,0,3v0c0-1.7,1.3-3,3-3h3C6,0,6,6,6,6z"></path></g>
<g transform="translate(216,432) scale(4.12)"><rect width="6" height="6"></rect></g>
<g transform="translate(240,432) scale(4.12)"><path d="M3,6H0V0l6,0v3C6,4.7,4.7,6,3,6z"></path></g>
<g transform="translate(312,432) scale(4.12)"><rect width="6" height="6"></rect></g>
<g transform="translate(336,432) scale(4.12)"><path d="M3,6H0V0l6,0v3C6,4.7,4.7,6,3,6z"></path></g>
<g transform="translate(408,432) scale(4.12)"><path d="M6,6H3C1.3,6,0,4.7,0,3V0l6,0V6z"></path></g>
<g transform="translate(432,432) scale(4.12)"><path d="M6,6H0V0l3,0c1.7,0,3,1.3,3,3V6z"></path></g>
<g transform="translate(480,432) scale(4.12)"><path d="M6,6H0V3c0-1.7,1.3-3,3-3l3,0V6z"></path></g>
<g transform="translate(504,432) scale(4.12)"><path d="M6,6H0V0l3,0c1.7,0,3,1.3,3,3V6z"></path></g>
<g transform="translate(576,432) scale(4.12)"><path d="M6,6H0V3c0-1.7,1.3-3,3-3l3,0V6z"></path></g>
<g transform="translate(600,432) scale(4.12)"><path d="M3,6H0V0l6,0v3C6,4.7,4.7,6,3,6z"></path></g>
<g transform="translate(648,432) scale(4.12)"><path d="M6,6H3C1.3,6,0,4.7,0,3v0c0-1.7,1.3-3,3-3h3C6,0,6,6,6,6z"></path></g>
<g transform="translate(672,432) scale(4.12)"><rect width="6" height="6"></rect></g>
<g transform="translate(696,432) scale(4.12)"><path d="M3,6H0V0l6,0v3C6,4.7,4.7,6,3,6z"></path></g>
<g transform="translate(744,432) scale(4.12)"><rect width="6" height="6"></rect></g>
<g transform="translate(768,432) scale(4.12)"><path d="M3,6H0V0l6,0v3C6,4.7,4.7,6,3,6z"></path></g>
<g transform="translate(816,432) scale(4.12)"><path d="M3,6L3,6C1.3,6,0,4.7,0,3V0h6v3C6,4.7,4.7,6,3,6z"></path></g>
<g transform="translate(864,432) scale(4.12)"><path d="M6,6H0V3c0-1.7,1.3-3,3-3l3,0V6z"></path></g>
<g transform="translate(888,432) scale(4.12)"><path d="M3,6H0V0l6,0v3C6,4.7,4.7,6,3,6z"></path></g>
<g transform="translate(48,456) scale(4.12)"><rect width="6" height="6"></rect></g>
<g transform="translate(168,456) scale(4.12)"><path d="M6,6H0V3c0-1.7,1.3-3,3-3h0c1.7,0,3,1.3,3,3V6z"></path></g>
<g transform="translate(264,456) scale(4.12)"><path d="M6,6H0V3c0-1.7,1.3-3,3-3h0c1.7,0,3,1.3,3,3V6z"></path></g>
<g transform="translate(312,456) scale(4.12)"><path d="M3,6L3,6C1.3,6,0,4.7,0,3V0h6v3C6,4.7,4.7,6,3,6z"></path></g>
<g transform="translate(384,456) scale(4.12)"><circle cx="3" cy="3" r="3"></circle></g>
<g transform="translate(432,456) scale(4.12)"><rect width="6" height="6"></rect></g>
<g transform="translate(480,456) scale(4.12)"><rect width="6" height="6"></rect></g>
<g transform="translate(504,456) scale(4.12)"><path d="M3,6H0V0l6,0v3C6,4.7,4.7,6,3,6z"></path></g>
<g transform="translate(552,456) scale(4.12)"><path d="M6,6H3C1.3,6,0,4.7,0,3v0c0-1.7,1.3-3,3-3h3C6,0,6,6,6,6z"></path></g>
<g transform="translate(576,456) scale(4.12)"><rect width="6" height="6"></rect></g>
<g transform="translate(624,456) scale(4.12)"><circle cx="3" cy="3" r="3"></circle></g>
<g transform="translate(720,456) scale(4.12)"><path d="M6,6H3C1.3,6,0,4.7,0,3v0c0-1.7,1.3-3,3-3h3C6,0,6,6,6,6z"></path></g>
<g transform="translate(744,456) scale(4.12)"><rect width="6" height="6"></rect></g>
<g transform="translate(792,456) scale(4.12)"><circle cx="3" cy="3" r="3"></circle></g>
<g transform="translate(864,456) scale(4.12)"><rect width="6" height="6"></rect></g>
<g transform="translate(48,480) scale(4.12)"><rect width="6" height="6"></rect></g>
<g transform="translate(144,480) scale(4.12)"><path d="M6,6H3C1.3,6,0,4.7,0,3v0c0-1.7,1.3-3,3-3h3C6,0,6,6,6,6z"></path></g>
<g transform="translate(168,480) scale(4.12)"><rect width="6" height="6"></rect></g>
<g transform="translate(192,480) scale(4.12)"><path d="M3,6H0V0l3,0c1.7,0,3,1.3,3,3v0C6,4.7,4.7,6,3,6z"></path></g>
<g transform="translate(264,480) scale(4.12)"><rect width="6" height="6"></rect></g>
<g transform="translate(288,480) scale(4.12)"><path d="M6,6H0V0l3,0c1.7,0,3,1.3,3,3V6z"></path></g>
<g transform="translate(336,480) scale(4.12)"><path d="M6,6H3C1.3,6,0,4.7,0,3v0c0-1.7,1.3-3,3-3h3C6,0,6,6,6,6z"></path></g>
<g transform="translate(360,480) scale(4.12)"><path d="M6,6H0V0l3,0c1.7,0,3,1.3,3,3V6z"></path></g>
<g transform="translate(432,480) scale(4.12)"><rect width="6" height="6"></rect></g>
<g transform="translate(456,480) scale(4.12)"><rect width="6" height="6"></rect></g>
<g transform="translate(480,480) scale(4.12)"><rect width="6" height="6"></rect></g>
<g transform="translate(576,480) scale(4.12)"><path d="M6,6H3C1.3,6,0,4.7,0,3V0l6,0V6z"></path></g>
<g transform="translate(600,480) scale(4.12)"><path d="M3,6H0V0l3,0c1.7,0,3,1.3,3,3v0C6,4.7,4.7,6,3,6z"></path></g>
<g transform="translate(696,480) scale(4.12)"><path d="M6,6H0V3c0-1.7,1.3-3,3-3h0c1.7,0,3,1.3,3,3V6z"></path></g>
<g transform="translate(744,480) scale(4.12)"><rect width="6" height="6"></rect></g>
<g transform="translate(840,480) scale(4.12)"><path d="M6,6H3C1.3,6,0,4.7,0,3v0c0-1.7,1.3-3,3-3h3C6,0,6,6,6,6z"></path></g>
<g transform="translate(864,480) scale(4.12)"><rect width="6" height="6"></rect></g>
<g transform="translate(888,480) scale(4.12)"><rect width="6" height="6"></rect></g>
<g transform="translate(912,480) scale(4.12)"><path d="M6,6H0V0l3,0c1.7,0,3,1.3,3,3V6z"></path></g>
<g transform="translate(48,504) scale(4.12)"><path d="M6,6H3C1.3,6,0,4.7,0,3V0l6,0V6z"></path></g>
<g transform="translate(72,504) scale(4.12)"><path d="M6,6H0V0l3,0c1.7,0,3,1.3,3,3V6z"></path></g>
<g transform="translate(240,504) scale(4.12)"><path d="M6,6H0V3c0-1.7,1.3-3,3-3l3,0V6z"></path></g>
<g transform="translate(264,504) scale(4.12)"><rect width="6" height="6"></rect></g>
<g transform="translate(288,504) scale(4.12)"><rect width="6" height="6"></rect></g>
<g transform="translate(360,504) scale(4.12)"><path d="M3,6L3,6C1.3,6,0,4.7,0,3V0h6v3C6,4.7,4.7,6,3,6z"></path></g>
<g transform="translate(432,504) scale(4.12)"><path d="M3,6L3,6C1.3,6,0,4.7,0,3V0h6v3C6,4.7,4.7,6,3,6z"></path></g>
<g transform="translate(480,504) scale(4.12)"><path d="M6,6H3C1.3,6,0,4.7,0,3V0l6,0V6z"></path></g>
<g transform="translate(504,504) scale(4.12)"><rect width="6" height="6"></rect></g>
<g transform="translate(528,504) scale(4.12)"><rect width="6" height="6"></rect></g>
<g transform="translate(552,504) scale(4.12)"><path d="M3,6H0V0l3,0c1.7,0,3,1.3,3,3v0C6,4.7,4.7,6,3,6z"></path></g>
<g transform="translate(696,504) scale(4.12)"><rect width="6" height="6"></rect></g>
<g transform="translate(720,504) scale(4.12)"><rect width="6" height="6"></rect></g>
<g transform="translate(744,504) scale(4.12)"><rect width="6" height="6"></rect></g>
<g transform="translate(816,504) scale(4.12)"><path d="M6,6H0V3c0-1.7,1.3-3,3-3h0c1.7,0,3,1.3,3,3V6z"></path></g>
<g transform="translate(888,504) scale(4.12)"><rect width="6" height="6"></rect></g>
<g transform="translate(912,504) scale(4.12)"><path d="M3,6H0V0l6,0v3C6,4.7,4.7,6,3,6z"></path></g>
<g transform="translate(72,528) scale(4.12)"><path d="M3,6L3,6C1.3,6,0,4.7,0,3V0h6v3C6,4.7,4.7,6,3,6z"></path></g>
<g transform="translate(144,528) scale(4.12)"><path d="M6,6H0V3c0-1.7,1.3-3,3-3h0c1.7,0,3,1.3,3,3V6z"></path></g>
<g transform="translate(192,528) scale(4.12)"><circle cx="3" cy="3" r="3"></circle></g>
<g transform="translate(240,528) scale(4.12)"><rect width="6" height="6"></rect></g>
<g transform="translate(264,528) scale(4.12)"><rect width="6" height="6"></rect></g>
<g transform="translate(288,528) scale(4.12)"><rect width="6" height="6"></rect></g>
<g transform="translate(408,528) scale(4.12)"><path d="M6,6H0V3c0-1.7,1.3-3,3-3h0c1.7,0,3,1.3,3,3V6z"></path></g>
<g transform="translate(456,528) scale(4.12)"><path d="M6,6H0V3c0-1.7,1.3-3,3-3h0c1.7,0,3,1.3,3,3V6z"></path></g>
<g transform="translate(648,528) scale(4.12)"><circle cx="3" cy="3" r="3"></circle></g>
<g transform="translate(696,528) scale(4.12)"><path d="M3,6L3,6C1.3,6,0,4.7,0,3V0h6v3C6,4.7,4.7,6,3,6z"></path></g>
<g transform="translate(744,528) scale(4.12)"><path d="M6,6H3C1.3,6,0,4.7,0,3V0l6,0V6z"></path></g>
<g transform="translate(768,528) scale(4.12)"><rect width="6" height="6"></rect></g>
<g transform="translate(792,528) scale(4.12)"><rect width="6" height="6"></rect></g>
<g transform="translate(816,528) scale(4.12)"><path d="M3,6H0V0l6,0v3C6,4.7,4.7,6,3,6z"></path></g>
<g transform="translate(864,528) scale(4.12)"><path d="M6,6H3C1.3,6,0,4.7,0,3v0c0-1.7,1.3-3,3-3h3C6,0,6,6,6,6z"></path></g>
<g transform="translate(888,528) scale(4.12)"><path d="M3,6H0V0l6,0v3C6,4.7,4.7,6,3,6z"></path></g>
<g transform="translate(96,552) scale(4.12)"><path d="M6,6H0V3c0-1.7,1.3-3,3-3h0c1.7,0,3,1.3,3,3V6z"></path></g>
<g transform="translate(144,552) scale(4.12)"><rect width="6" height="6"></rect></g>
<g transform="translate(168,552) scale(4.12)"><path d="M3,6H0V0l3,0c1.7,0,3,1.3,3,3v0C6,4.7,4.7,6,3,6z"></path></g>
<g transform="translate(240,552) scale(4.12)"><path d="M6,6H3C1.3,6,0,4.7,0,3V0l6,0V6z"></path></g>
<g transform="translate(264,552) scale(4.12)"><rect width="6" height="6"></rect></g>
<g transform="translate(288,552) scale(4.12)"><rect width="6" height="6"></rect></g>
<g transform="translate(312,552) scale(4.12)"><path d="M6,6H0V0l3,0c1.7,0,3,1.3,3,3V6z"></path></g>
<g transform="translate(360,552) scale(4.12)"><path d="M6,6H0V3c0-1.7,1.3-3,3-3h0c1.7,0,3,1.3,3,3V6z"></path></g>
<g transform="translate(408,552) scale(4.12)"><path d="M3,6L3,6C1.3,6,0,4.7,0,3V0h6v3C6,4.7,4.7,6,3,6z"></path></g>
<g transform="translate(456,552) scale(4.12)"><path d="M6,6H3C1.3,6,0,4.7,0,3V0l6,0V6z"></path></g>
<g transform="translate(480,552) scale(4.12)"><path d="M6,6H0V0l3,0c1.7,0,3,1.3,3,3V6z"></path></g>
<g transform="translate(528,552) scale(4.12)"><circle cx="3" cy="3" r="3"></circle></g>
<g transform="translate(576,552) scale(4.12)"><path d="M6,6H0V3c0-1.7,1.3-3,3-3l3,0V6z"></path></g>
<g transform="translate(600,552) scale(4.12)"><rect width="6" height="6"></rect></g>
<g transform="translate(624,552) scale(4.12)"><path d="M6,6H0V0l3,0c1.7,0,3,1.3,3,3V6z"></path></g>
<g transform="translate(672,552) scale(4.12)"><circle cx="3" cy="3" r="3"></circle></g>
<g transform="translate(792,552) scale(4.12)"><path d="M3,6L3,6C1.3,6,0,4.7,0,3V0h6v3C6,4.7,4.7,6,3,6z"></path></g>
<g transform="translate(912,552) scale(4.12)"><circle cx="3" cy="3" r="3"></circle></g>
<g transform="translate(48,576) scale(4.12)"><path d="M6,6H3C1.3,6,0,4.7,0,3v0c0-1.7,1.3-3,3-3h3C6,0,6,6,6,6z"></path></g>
<g transform="translate(72,576) scale(4.12)"><rect width="6" height="6"></rect></g>
<g transform="translate(96,576) scale(4.12)"><path d="M3,6H0V0l6,0v3C6,4.7,4.7,6,3,6z"></path></g>
<g transform="translate(144,576) scale(4.12)"><path d="M3,6L3,6C1.3,6,0,4.7,0,3V0h6v3C6,4.7,4.7,6,3,6z"></path></g>
<g transform="translate(192,576) scale(4.12)"><circle cx="3" cy="3" r="3"></circle></g>
<g transform="translate(264,576) scale(4.12)"><path d="M3,6L3,6C1.3,6,0,4.7,0,3V0h6v3C6,4.7,4.7,6,3,6z"></path></g>
<g transform="translate(312,576) scale(4.12)"><rect width="6" height="6"></rect></g>
<g transform="translate(360,576) scale(4.12)"><rect width="6" height="6"></rect></g>
<g transform="translate(480,576) scale(4.12)"><rect width="6" height="6"></rect></g>
<g transform="translate(552,576) scale(4.12)"><path d="M6,6H0V3c0-1.7,1.3-3,3-3l3,0V6z"></path></g>
<g transform="translate(576,576) scale(4.12)"><path d="M3,6H0V0l6,0v3C6,4.7,4.7,6,3,6z"></path></g>
<g transform="translate(624,576) scale(4.12)"><path d="M3,6L3,6C1.3,6,0,4.7,0,3V0h6v3C6,4.7,4.7,6,3,6z"></path></g>
<g transform="translate(696,576) scale(4.12)"><circle cx="3" cy="3" r="3"></circle></g>
<g transform="translate(768,576) scale(4.12)"><path d="M6,6H0V3c0-1.7,1.3-3,3-3h0c1.7,0,3,1.3,3,3V6z"></path></g>
<g transform="translate(840,576) scale(4.12)"><path d="M6,6H3C1.3,6,0,4.7,0,3v0c0-1.7,1.3-3,3-3h3C6,0,6,6,6,6z"></path></g>
<g transform="translate(864,576) scale(4.12)"><path d="M3,6H0V0l3,0c1.7,0,3,1.3,3,3v0C6,4.7,4.7,6,3,6z"></path></g>
<g transform="translate(168,600) scale(4.12)"><circle cx="3" cy="3" r="3"></circle></g>
<g transform="translate(216,600) scale(4.12)"><circle cx="3" cy="3" r="3"></circle></g>
<g transform="translate(288,600) scale(4.12)"><path d="M6,6H0V3c0-1.7,1.3-3,3-3l3,0V6z"></path></g>
<g transform="translate(312,600) scale(4.12)"><rect width="6" height="6"></rect></g>
<g transform="translate(336,600) scale(4.12)"><rect width="6" height="6"></rect></g>
<g transform="translate(360,600) scale(4.12)"><rect width="6" height="6"></rect></g>
<g transform="translate(384,600) scale(4.12)"><path d="M6,6H0V0l3,0c1.7,0,3,1.3,3,3V6z"></path></g>
<g transform="translate(432,600) scale(4.12)"><circle cx="3" cy="3" r="3"></circle></g>
<g transform="translate(480,600) scale(4.12)"><path d="M6,6H3C1.3,6,0,4.7,0,3V0l6,0V6z"></path></g>
<g transform="translate(504,600) scale(4.12)"><rect width="6" height="6"></rect></g>
<g transform="translate(528,600) scale(4.12)"><rect width="6" height="6"></rect></g>
<g transform="translate(552,600) scale(4.12)"><path d="M3,6H0V0l6,0v3C6,4.7,4.7,6,3,6z"></path></g>
<g transform="translate(672,600) scale(4.12)"><circle cx="3" cy="3" r="3"></circle></g>
<g transform="translate(744,600) scale(4.12)"><path d="M6,6H3C1.3,6,0,4.7,0,3v0c0-1.7,1.3-3,3-3h3C6,0,6,6,6,6z"></path></g>
<g transform="translate(768,600) scale(4.12)"><rect width="6" height="6"></rect></g>
<g transform="translate(792,600) scale(4.12)"><path d="M3,6H0V0l3,0c1.7,0,3,1.3,3,3v0C6,4.7,4.7,6,3,6z"></path></g>
<g transform="translate(888,600) scale(4.12)"><circle cx="3" cy="3" r="3"></circle></g>
<g transform="translate(48,624) scale(4.12)"><path d="M6,6H0V3c0-1.7,1.3-3,3-3h0c1.7,0,3,1.3,3,3V6z"></path></g>
<g transform="translate(96,624) scale(4.12)"><path d="M6,6H3C1.3,6,0,4.7,0,3v0c0-1.7,1.3-3,3-3h3C6,0,6,6,6,6z"></path></g>
<g transform="translate(120,624) scale(4.12)"><path d="M6,6H0V0l3,0c1.7,0,3,1.3,3,3V6z"></path></g>
<g transform="translate(192,624) scale(4.12)"><circle cx="3" cy="3" r="3"></circle></g>
<g transform="translate(264,624) scale(4.12)"><path d="M6,6H3C1.3,6,0,4.7,0,3v0c0-1.7,1.3-3,3-3h3C6,0,6,6,6,6z"></path></g>
<g transform="translate(288,624) scale(4.12)"><rect width="6" height="6"></rect></g>
<g transform="translate(312,624) scale(4.12)"><rect width="6" height="6"></rect></g>
<g transform="translate(336,624) scale(4.12)"><rect width="6" height="6"></rect></g>
<g transform="translate(360,624) scale(4.12)"><rect width="6" height="6"></rect></g>
<g transform="translate(384,624) scale(4.12)"><rect width="6" height="6"></rect></g>
<g transform="translate(456,624) scale(4.12)"><circle cx="3" cy="3" r="3"></circle></g>
<g transform="translate(504,624) scale(4.12)"><path d="M3,6L3,6C1.3,6,0,4.7,0,3V0h6v3C6,4.7,4.7,6,3,6z"></path></g>
<g transform="translate(576,624) scale(4.12)"><path d="M6,6H3C1.3,6,0,4.7,0,3v0c0-1.7,1.3-3,3-3h3C6,0,6,6,6,6z"></path></g>
<g transform="translate(600,624) scale(4.12)"><path d="M3,6H0V0l3,0c1.7,0,3,1.3,3,3v0C6,4.7,4.7,6,3,6z"></path></g>
<g transform="translate(768,624) scale(4.12)"><rect width="6" height="6"></rect></g>
<g transform="translate(840,624) scale(4.12)"><path d="M6,6H0V3c0-1.7,1.3-3,3-3l3,0V6z"></path></g>
<g transform="translate(864,624) scale(4.12)"><path d="M3,6H0V0l3,0c1.7,0,3,1.3,3,3v0C6,4.7,4.7,6,3,6z"></path></g>
<g transform="translate(912,624) scale(4.12)"><circle cx="3" cy="3" r="3"></circle></g>
<g transform="translate(48,648) scale(4.12)"><rect width="6" height="6"></rect></g>
<g transform="translate(120,648) scale(4.12)"><path d="M6,6H3C1.3,6,0,4.7,0,3V0l6,0V6z"></path></g>
<g transform="translate(144,648) scale(4.12)"><path d="M6,6H0V0l3,0c1.7,0,3,1.3,3,3V6z"></path></g>
<g transform="translate(216,648) scale(4.12)"><path d="M6,6H0V3c0-1.7,1.3-3,3-3l3,0V6z"></path></g>
<g transform="translate(240,648) scale(4.12)"><path d="M6,6H0V0l3,0c1.7,0,3,1.3,3,3V6z"></path></g>
<g transform="translate(288,648) scale(4.12)"><path d="M6,6H3C1.3,6,0,4.7,0,3V0l6,0V6z"></path></g>
<g transform="translate(312,648) scale(4.12)"><rect width="6" height="6"></rect></g>
<g transform="translate(336,648) scale(4.12)"><rect width="6" height="6"></rect></g>
<g transform="translate(360,648) scale(4.12)"><rect width="6" height="6"></rect></g>
<g transform="translate(384,648) scale(4.12)"><rect width="6" height="6"></rect></g>
<g transform="translate(408,648) scale(4.12)"><rect width="6" height="6"></rect></g>
<g transform="translate(432,648) scale(4.12)"><path d="M3,6H0V0l3,0c1.7,0,3,1.3,3,3v0C6,4.7,4.7,6,3,6z"></path></g>
<g transform="translate(528,648) scale(4.12)"><path d="M6,6H0V3c0-1.7,1.3-3,3-3h0c1.7,0,3,1.3,3,3V6z"></path></g>
<g transform="translate(624,648) scale(4.12)"><circle cx="3" cy="3" r="3"></circle></g>
<g transform="translate(672,648) scale(4.12)"><path d="M6,6H3C1.3,6,0,4.7,0,3v0c0-1.7,1.3-3,3-3h3C6,0,6,6,6,6z"></path></g>
<g transform="translate(696,648) scale(4.12)"><rect width="6" height="6"></rect></g>
<g transform="translate(720,648) scale(4.12)"><rect width="6" height="6"></rect></g>
<g transform="translate(744,648) scale(4.12)"><rect width="6" height="6"></rect></g>
<g transform="translate(768,648) scale(4.12)"><rect width="6" height="6"></rect></g>
<g transform="translate(840,648) scale(4.12)"><rect width="6" height="6"></rect></g>
<g transform="translate(48,672) scale(4.12)"><rect width="6" height="6"></rect></g>
<g transform="translate(96,672) scale(4.12)"><circle cx="3" cy="3" r="3"></circle></g>
<g transform="translate(144,672) scale(4.12)"><path d="M6,6H3C1.3,6,0,4.7,0,3V0l6,0V6z"></path></g>
<g transform="translate(168,672) scale(4.12)"><rect width="6" height="6"></rect></g>
<g transform="translate(192,672) scale(4.12)"><rect width="6" height="6"></rect></g>
<g transform="translate(216,672) scale(4.12)"><rect width="6" height="6"></rect></g>
<g transform="translate(240,672) scale(4.12)"><rect width="6" height="6"></rect></g>
<g transform="translate(336,672) scale(4.12)"><rect width="6" height="6"></rect></g>
<g transform="translate(456,672) scale(4.12)"><path d="M6,6H0V3c0-1.7,1.3-3,3-3h0c1.7,0,3,1.3,3,3V6z"></path></g>
<g transform="translate(528,672) scale(4.12)"><path d="M6,6H3C1.3,6,0,4.7,0,3V0l6,0V6z"></path></g>
<g transform="translate(552,672) scale(4.12)"><rect width="6" height="6"></rect></g>
<g transform="translate(576,672) scale(4.12)"><path d="M6,6H0V0l3,0c1.7,0,3,1.3,3,3V6z"></path></g>
<g transform="translate(648,672) scale(4.12)"><circle cx="3" cy="3" r="3"></circle></g>
<g transform="translate(768,672) scale(4.12)"><path d="M3,6L3,6C1.3,6,0,4.7,0,3V0h6v3C6,4.7,4.7,6,3,6z"></path></g>
<g transform="translate(840,672) scale(4.12)"><rect width="6" height="6"></rect></g>
<g transform="translate(912,672) scale(4.12)"><circle cx="3" cy="3" r="3"></circle></g>
<g transform="translate(48,696) scale(4.12)"><rect width="6" height="6"></rect></g>
<g transform="translate(216,696) scale(4.12)"><path d="M6,6H3C1.3,6,0,4.7,0,3V0l6,0V6z"></path></g>
<g transform="translate(240,696) scale(4.12)"><rect width="6" height="6"></rect></g>
<g transform="translate(264,696) scale(4.12)"><rect width="6" height="6"></rect></g>
<g transform="translate(288,696) scale(4.12)"><path d="M3,6H0V0l3,0c1.7,0,3,1.3,3,3v0C6,4.7,4.7,6,3,6z"></path></g>
<g transform="translate(336,696) scale(4.12)"><rect width="6" height="6"></rect></g>
<g transform="translate(408,696) scale(4.12)"><circle cx="3" cy="3" r="3"></circle></g>
<g transform="translate(456,696) scale(4.12)"><path d="M3,6L3,6C1.3,6,0,4.7,0,3V0h6v3C6,4.7,4.7,6,3,6z"></path></g>
<g transform="translate(576,696) scale(4.12)"><path d="M3,6L3,6C1.3,6,0,4.7,0,3V0h6v3C6,4.7,4.7,6,3,6z"></path></g>
<g transform="translate(624,696) scale(4.12)"><path d="M6,6H0V3c0-1.7,1.3-3,3-3h0c1.7,0,3,1.3,3,3V6z"></path></g>
<g transform="translate(720,696) scale(4.12)"><path d="M6,6H0V3c0-1.7,1.3-3,3-3l3,0V6z"></path></g>
<g transform="translate(744,696) scale(4.12)"><path d="M6,6H0V0l3,0c1.7,0,3,1.3,3,3V6z"></path></g>
<g transform="translate(840,696) scale(4.12)"><path d="M3,6L3,6C1.3,6,0,4.7,0,3V0h6v3C6,4.7,4.7,6,3,6z"></path></g>
<g transform="translate(888,696) scale(4.12)"><path d="M6,6H0V3c0-1.7,1.3-3,3-3h0c1.7,0,3,1.3,3,3V6z"></path></g>
<g transform="translate(48,720) scale(4.12)"><path d="M3,6L3,6C1.3,6,0,4.7,0,3V0h6v3C6,4.7,4.7,6,3,6z"></path></g>
<g transform="translate(96,720) scale(4.12)"><path d="M6,6H3C1.3,6,0,4.7,0,3v0c0-1.7,1.3-3,3-3h3C6,0,6,6,6,6z"></path></g>
<g transform="translate(120,720) scale(4.12)"><path d="M3,6H0V0l3,0c1.7,0,3,1.3,3,3v0C6,4.7,4.7,6,3,6z"></path></g>
<g transform="translate(168,720) scale(4.12)"><path d="M6,6H3C1.3,6,0,4.7,0,3v0c0-1.7,1.3-3,3-3h3C6,0,6,6,6,6z"></path></g>
<g transform="translate(192,720) scale(4.12)"><path d="M3,6H0V0l3,0c1.7,0,3,1.3,3,3v0C6,4.7,4.7,6,3,6z"></path></g>
<g transform="translate(240,720) scale(4.12)"><rect width="6" height="6"></rect></g>
<g transform="translate(312,720) scale(4.12)"><path d="M6,6H0V3c0-1.7,1.3-3,3-3l3,0V6z"></path></g>
<g transform="translate(336,720) scale(4.12)"><rect width="6" height="6"></rect></g>
<g transform="translate(504,720) scale(4.12)"><circle cx="3" cy="3" r="3"></circle></g>
<g transform="translate(552,720) scale(4.12)"><path d="M6,6H0V3c0-1.7,1.3-3,3-3h0c1.7,0,3,1.3,3,3V6z"></path></g>
<g transform="translate(624,720) scale(4.12)"><path d="M6,6H3C1.3,6,0,4.7,0,3V0l6,0V6z"></path></g>
<g transform="translate(648,720) scale(4.12)"><rect width="6" height="6"></rect></g>
<g transform="translate(672,720) scale(4.12)"><path d="M3,6H0V0l3,0c1.7,0,3,1.3,3,3v0C6,4.7,4.7,6,3,6z"></path></g>
<g transform="translate(720,720) scale(4.12)"><rect width="6" height="6"></rect></g>
<g transform="translate(744,720) scale(4.12)"><rect width="6" height="6"></rect></g>
<g transform="translate(768,720) scale(4.12)"><rect width="6" height="6"></rect></g>
<g transform="translate(792,720) scale(4.12)"><rect width="6" height="6"></rect></g>
<g transform="translate(816,720) scale(4.12)"><path d="M6,6H0V0l3,0c1.7,0,3,1.3,3,3V6z"></path></g>
<g transform="translate(888,720) scale(4.12)"><path d="M3,6L3,6C1.3,6,0,4.7,0,3V0h6v3C6,4.7,4.7,6,3,6z"></path></g>
<g transform="translate(240,744) scale(4.12)"><path d="M6,6H3C1.3,6,0,4.7,0,3V0l6,0V6z"></path></g>
<g transform="translate(264,744) scale(4.12)"><rect width="6" height="6"></rect></g>
<g transform="translate(288,744) scale(4.12)"><rect width="6" height="6"></rect></g>
<g transform="translate(312,744) scale(4.12)"><rect width="6" height="6"></rect></g>
<g transform="translate(336,744) scale(4.12)"><path d="M3,6H0V0l6,0v3C6,4.7,4.7,6,3,6z"></path></g>
<g transform="translate(408,744) scale(4.12)"><circle cx="3" cy="3" r="3"></circle></g>
<g transform="translate(528,744) scale(4.12)"><path d="M6,6H3C1.3,6,0,4.7,0,3v0c0-1.7,1.3-3,3-3h3C6,0,6,6,6,6z"></path></g>
<g transform="translate(552,744) scale(4.12)"><rect width="6" height="6"></rect></g>
<g transform="translate(576,744) scale(4.12)"><path d="M6,6H0V0l3,0c1.7,0,3,1.3,3,3V6z"></path></g>
<g transform="translate(696,744) scale(4.12)"><path d="M6,6H3C1.3,6,0,4.7,0,3v0c0-1.7,1.3-3,3-3h3C6,0,6,6,6,6z"></path></g>
<g transform="translate(720,744) scale(4.12)"><rect width="6" height="6"></rect></g>
<g transform="translate(816,744) scale(4.12)"><rect width="6" height="6"></rect></g>
<g transform="translate(264,768) scale(4.12)"><path d="M3,6L3,6C1.3,6,0,4.7,0,3V0h6v3C6,4.7,4.7,6,3,6z"></path></g>
<g transform="translate(480,768) scale(4.12)"><circle cx="3" cy="3" r="3"></circle></g>
<g transform="translate(552,768) scale(4.12)"><rect width="6" height="6"></rect></g>
<g transform="translate(576,768) scale(4.12)"><path d="M3,6H0V0l6,0v3C6,4.7,4.7,6,3,6z"></path></g>
<g transform="translate(672,768) scale(4.12)"><circle cx="3" cy="3" r="3"></circle></g>
<g transform="translate(720,768) scale(4.12)"><rect width="6" height="6"></rect></g>
<g transform="translate(768,768) scale(4.12)"><circle cx="3" cy="3" r="3"></circle></g>
<g transform="translate(816,768) scale(4.12)"><rect width="6" height="6"></rect></g>
<g transform="translate(840,768) scale(4.12)"><path d="M3,6H0V0l3,0c1.7,0,3,1.3,3,3v0C6,4.7,4.7,6,3,6z"></path></g>
<g transform="translate(888,768) scale(4.12)"><path d="M6,6H0V3c0-1.7,1.3-3,3-3l3,0V6z"></path></g>
<g transform="translate(912,768) scale(4.12)"><path d="M6,6H0V0l3,0c1.7,0,3,1.3,3,3V6z"></path></g>
<g transform="translate(336,792) scale(4.12)"><path d="M6,6H3C1.3,6,0,4.7,0,3v0c0-1.7,1.3-3,3-3h3C6,0,6,6,6,6z"></path></g>
<g transform="translate(360,792) scale(4.12)"><path d="M6,6H0V0l3,0c1.7,0,3,1.3,3,3V6z"></path></g>
<g transform="translate(408,792) scale(4.12)"><path d="M6,6H0V3c0-1.7,1.3-3,3-3h0c1.7,0,3,1.3,3,3V6z"></path></g>
<g transform="translate(456,792) scale(4.12)"><circle cx="3" cy="3" r="3"></circle></g>
<g transform="translate(504,792) scale(4.12)"><path d="M6,6H3C1.3,6,0,4.7,0,3v0c0-1.7,1.3-3,3-3h3C6,0,6,6,6,6z"></path></g>
<g transform="translate(528,792) scale(4.12)"><rect width="6" height="6"></rect></g>
<g transform="translate(552,792) scale(4.12)"><path d="M3,6H0V0l6,0v3C6,4.7,4.7,6,3,6z"></path></g>
<g transform="translate(720,792) scale(4.12)"><rect width="6" height="6"></rect></g>
<g transform="translate(816,792) scale(4.12)"><rect width="6" height="6"></rect></g>
<g transform="translate(888,792) scale(4.12)"><path d="M6,6H3C1.3,6,0,4.7,0,3V0l6,0V6z"></path></g>
<g transform="translate(912,792) scale(4.12)"><path d="M3,6H0V0l6,0v3C6,4.7,4.7,6,3,6z"></path></g>
<g transform="translate(240,816) scale(4.12)"><path d="M6,6H0V3c0-1.7,1.3-3,3-3h0c1.7,0,3,1.3,3,3V6z"></path></g>
<g transform="translate(288,816) scale(4.12)"><path d="M6,6H0V3c0-1.7,1.3-3,3-3h0c1.7,0,3,1.3,3,3V6z"></path></g>
<g transform="translate(360,816) scale(4.12)"><rect width="6" height="6"></rect></g>
<g transform="translate(384,816) scale(4.12)"><rect width="6" height="6"></rect></g>
<g transform="translate(408,816) scale(4.12)"><rect width="6" height="6"></rect></g>
<g transform="translate(576,816) scale(4.12)"><path d="M6,6H0V3c0-1.7,1.3-3,3-3h0c1.7,0,3,1.3,3,3V6z"></path></g>
<g transform="translate(624,816) scale(4.12)"><path d="M6,6H3C1.3,6,0,4.7,0,3v0c0-1.7,1.3-3,3-3h3C6,0,6,6,6,6z"></path></g>
<g transform="translate(648,816) scale(4.12)"><rect width="6" height="6"></rect></g>
<g transform="translate(672,816) scale(4.12)"><rect width="6" height="6"></rect></g>
<g transform="translate(696,816) scale(4.12)"><rect width="6" height="6"></rect></g>
<g transform="translate(720,816) scale(4.12)"><rect width="6" height="6"></rect></g>
<g transform="translate(744,816) scale(4.12)"><rect width="6" height="6"></rect></g>
<g transform="translate(768,816) scale(4.12)"><rect width="6" height="6"></rect></g>
<g transform="translate(792,816) scale(4.12)"><rect width="6" height="6"></rect></g>
<g transform="translate(816,816) scale(4.12)"><rect width="6" height="6"></rect></g>
<g transform="translate(864,816) scale(4.12)"><circle cx="3" cy="3" r="3"></circle></g>
<g transform="translate(240,840) scale(4.12)"><rect width="6" height="6"></rect></g>
<g transform="translate(288,840) scale(4.12)"><rect width="6" height="6"></rect></g>
<g transform="translate(312,840) scale(4.12)"><rect width="6" height="6"></rect></g>
<g transform="translate(336,840) scale(4.12)"><rect width="6" height="6"></rect></g>
<g transform="translate(360,840) scale(4.12)"><rect width="6" height="6"></rect></g>
<g transform="translate(384,840) scale(4.12)"><rect width="6" height="6"></rect></g>
<g transform="translate(408,840) scale(4.12)"><rect width="6" height="6"></rect></g>
<g transform="translate(432,840) scale(4.12)"><path d="M6,6H0V0l3,0c1.7,0,3,1.3,3,3V6z"></path></g>
<g transform="translate(528,840) scale(4.12)"><path d="M6,6H0V3c0-1.7,1.3-3,3-3h0c1.7,0,3,1.3,3,3V6z"></path></g>
<g transform="translate(576,840) scale(4.12)"><rect width="6" height="6"></rect></g>
<g transform="translate(648,840) scale(4.12)"><path d="M3,6L3,6C1.3,6,0,4.7,0,3V0h6v3C6,4.7,4.7,6,3,6z"></path></g>
<g transform="translate(768,840) scale(4.12)"><path d="M3,6L3,6C1.3,6,0,4.7,0,3V0h6v3C6,4.7,4.7,6,3,6z"></path></g>
<g transform="translate(816,840) scale(4.12)"><path d="M3,6L3,6C1.3,6,0,4.7,0,3V0h6v3C6,4.7,4.7,6,3,6z"></path></g>
<g transform="translate(888,840) scale(4.12)"><path d="M6,6H3C1.3,6,0,4.7,0,3v0c0-1.7,1.3-3,3-3h3C6,0,6,6,6,6z"></path></g>
<g transform="translate(912,840) scale(4.12)"><path d="M6,6H0V0l3,0c1.7,0,3,1.3,3,3V6z"></path></g>
<g transform="translate(240,864) scale(4.12)"><path d="M3,6L3,6C1.3,6,0,4.7,0,3V0h6v3C6,4.7,4.7,6,3,6z"></path></g>
<g transform="translate(288,864) scale(4.12)"><path d="M3,6L3,6C1.3,6,0,4.7,0,3V0h6v3C6,4.7,4.7,6,3,6z"></path></g>
<g transform="translate(336,864) scale(4.12)"><rect width="6" height="6"></rect></g>
<g transform="translate(408,864) scale(4.12)"><path d="M6,6H3C1.3,6,0,4.7,0,3V0l6,0V6z"></path></g>
<g transform="translate(432,864) scale(4.12)"><rect width="6" height="6"></rect></g>
<g transform="translate(456,864) scale(4.12)"><path d="M3,6H0V0l3,0c1.7,0,3,1.3,3,3v0C6,4.7,4.7,6,3,6z"></path></g>
<g transform="translate(504,864) scale(4.12)"><path d="M6,6H3C1.3,6,0,4.7,0,3v0c0-1.7,1.3-3,3-3h3C6,0,6,6,6,6z"></path></g>
<g transform="translate(528,864) scale(4.12)"><rect width="6" height="6"></rect></g>
<g transform="translate(552,864) scale(4.12)"><rect width="6" height="6"></rect></g>
<g transform="translate(576,864) scale(4.12)"><rect width="6" height="6"></rect></g>
<g transform="translate(600,864) scale(4.12)"><rect width="6" height="6"></rect></g>
<g transform="translate(624,864) scale(4.12)"><path d="M3,6H0V0l3,0c1.7,0,3,1.3,3,3v0C6,4.7,4.7,6,3,6z"></path></g>
<g transform="translate(672,864) scale(4.12)"><path d="M6,6H0V3c0-1.7,1.3-3,3-3l3,0V6z"></path></g>
<g transform="translate(696,864) scale(4.12)"><rect width="6" height="6"></rect></g>
<g transform="translate(720,864) scale(4.12)"><rect width="6" height="6"></rect></g>
<g transform="translate(744,864) scale(4.12)"><path d="M3,6H0V0l3,0c1.7,0,3,1.3,3,3v0C6,4.7,4.7,6,3,6z"></path></g>
<g transform="translate(840,864) scale(4.12)"><circle cx="3" cy="3" r="3"></circle></g>
<g transform="translate(912,864) scale(4.12)"><rect width="6" height="6"></rect></g>
<g transform="translate(336,888) scale(4.12)"><rect width="6" height="6"></rect></g>
<g transform="translate(360,888) scale(4.12)"><rect width="6" height="6"></rect></g>
<g transform="translate(384,888) scale(4.12)"><path d="M6,6H0V0l3,0c1.7,0,3,1.3,3,3V6z"></path></g>
<g transform="translate(432,888) scale(4.12)"><path d="M3,6L3,6C1.3,6,0,4.7,0,3V0h6v3C6,4.7,4.7,6,3,6z"></path></g>
<g transform="translate(480,888) scale(4.12)"><circle cx="3" cy="3" r="3"></circle></g>
<g transform="translate(528,888) scale(4.12)"><rect width="6" height="6"></rect></g>
<g transform="translate(600,888) scale(4.12)"><rect width="6" height="6"></rect></g>
<g transform="translate(672,888) scale(4.12)"><path d="M3,6L3,6C1.3,6,0,4.7,0,3V0h6v3C6,4.7,4.7,6,3,6z"></path></g>
<g transform="translate(720,888) scale(4.12)"><path d="M3,6L3,6C1.3,6,0,4.7,0,3V0h6v3C6,4.7,4.7,6,3,6z"></path></g>
<g transform="translate(768,888) scale(4.12)"><path d="M6,6H0V3c0-1.7,1.3-3,3-3h0c1.7,0,3,1.3,3,3V6z"></path></g>
<g transform="translate(816,888) scale(4.12)"><path d="M6,6H0V3c0-1.7,1.3-3,3-3h0c1.7,0,3,1.3,3,3V6z"></path></g>
<g transform="translate(912,888) scale(4.12)"><rect width="6" height="6"></rect></g>
<g transform="translate(264,912) scale(4.12)"><path d="M6,6H3C1.3,6,0,4.7,0,3v0c0-1.7,1.3-3,3-3h3C6,0,6,6,6,6z"></path></g>
<g transform="translate(288,912) scale(4.12)"><path d="M3,6H0V0l3,0c1.7,0,3,1.3,3,3v0C6,4.7,4.7,6,3,6z"></path></g>
<g transform="translate(336,912) scale(4.12)"><path d="M6,6H3C1.3,6,0,4.7,0,3V0l6,0V6z"></path></g>
<g transform="translate(360,912) scale(4.12)"><rect width="6" height="6"></rect></g>
<g transform="translate(384,912) scale(4.12)"><path d="M3,6H0V0l6,0v3C6,4.7,4.7,6,3,6z"></path></g>
<g transform="translate(504,912) scale(4.12)"><path d="M6,6H3C1.3,6,0,4.7,0,3v0c0-1.7,1.3-3,3-3h3C6,0,6,6,6,6z"></path></g>
<g transform="translate(528,912) scale(4.12)"><path d="M3,6H0V0l6,0v3C6,4.7,4.7,6,3,6z"></path></g>
<g transform="translate(576,912) scale(4.12)"><path d="M6,6H3C1.3,6,0,4.7,0,3v0c0-1.7,1.3-3,3-3h3C6,0,6,6,6,6z"></path></g>
<g transform="translate(600,912) scale(4.12)"><path d="M3,6H0V0l6,0v3C6,4.7,4.7,6,3,6z"></path></g>
<g transform="translate(648,912) scale(4.12)"><circle cx="3" cy="3" r="3"></circle></g>
<g transform="translate(768,912) scale(4.12)"><path d="M6,6H3C1.3,6,0,4.7,0,3V0l6,0V6z"></path></g>
<g transform="translate(792,912) scale(4.12)"><rect width="6" height="6"></rect></g>
<g transform="translate(816,912) scale(4.12)"><rect width="6" height="6"></rect></g>
<g transform="translate(840,912) scale(4.12)"><rect width="6" height="6"></rect></g>
<g transform="translate(864,912) scale(4.12)"><rect width="6" height="6"></rect></g>
<g transform="translate(888,912) scale(4.12)"><rect width="6" height="6"></rect></g>
<g transform="translate(912,912) scale(4.12)"><path d="M3,6H0V0l6,0v3C6,4.7,4.7,6,3,6z"></path></g>
</g><g><g transform="translate(48,48)" fill="#236436"><g transform="scale(12)"><path d="M4.5,14h5.1C12,14,14,12,14,9.6V4.5C14,2,12,0,9.5,0H4.4C2,0,0,2,0,4.4v5.1C0,12,2,14,4.5,14z M12,4.8v4.4 c0,1.5-1.3,2.8-2.8,2.8H4.8C3.2,12,2,10.8,2,9.2V4.8C2,3.3,3.3,2,4.8,2h4.4C10.8,2,12,3.2,12,4.8z"></path></g></g>
<g transform="translate(768,48)" fill="#236436"><g transform="scale(12)"><path d="M4.5,14h5.1C12,14,14,12,14,9.6V4.5C14,2,12,0,9.5,0H4.4C2,0,0,2,0,4.4v5.1C0,12,2,14,4.5,14z M12,4.8v4.4 c0,1.5-1.3,2.8-2.8,2.8H4.8C3.2,12,2,10.8,2,9.2V4.8C2,3.3,3.3,2,4.8,2h4.4C10.8,2,12,3.2,12,4.8z"></path></g></g>
<g transform="translate(48,768)" fill="#236436"><g transform="scale(12)"><path d="M4.5,14h5.1C12,14,14,12,14,9.6V4.5C14,2,12,0,9.5,0H4.4C2,0,0,2,0,4.4v5.1C0,12,2,14,4.5,14z M12,4.8v4.4 c0,1.5-1.3,2.8-2.8,2.8H4.8C3.2,12,2,10.8,2,9.2V4.8C2,3.3,3.3,2,4.8,2h4.4C10.8,2,12,3.2,12,4.8z"></path></g></g>
<g transform="translate(96,96)" fill="#236436"><g transform="scale(12)"><path d="M6,1.7v2.7C6,5.2,5.2,6,4.3,6H1.7C0.7,6,0,5.3,0,4.3V1.7C0,0.8,0.8,0,1.7,0h2.7C5.3,0,6,0.7,6,1.7z"></path></g></g>
<g transform="translate(816,96)" fill="#236436"><g transform="scale(12)"><path d="M6,1.7v2.7C6,5.2,5.2,6,4.3,6H1.7C0.7,6,0,5.3,0,4.3V1.7C0,0.8,0.8,0,1.7,0h2.7C5.3,0,6,0.7,6,1.7z"></path></g></g>
<g transform="translate(96,816)" fill="#236436"><g transform="scale(12)"><path d="M6,1.7v2.7C6,5.2,5.2,6,4.3,6H1.7C0.7,6,0,5.3,0,4.3V1.7C0,0.8,0.8,0,1.7,0h2.7C5.3,0,6,0.7,6,1.7z"></path></g></g></g>
</svg>