<svg xmlns="http://www.w3.org/2000/svg" xmlns:xlink="http://www.w3.org/1999/xlink" width="1920" zoomAndPan="magnify" viewBox="0 0 1440 809.999993" height="1080" preserveAspectRatio="xMidYMid meet" version="1.0"><path fill="#000000" d="M 857.707031 593.132812 L 499.964844 593.132812 C 489.992188 593.132812 480.921875 588.917969 475.105469 581.59375 C 469.210938 574.1875 467.160156 564.246094 469.476562 554.386719 L 541.269531 246.472656 C 545.40625 228.652344 562.875 214.660156 581.058594 214.660156 L 938.796875 214.660156 C 948.769531 214.660156 957.839844 218.871094 963.65625 226.195312 C 969.554688 233.601562 971.601562 243.546875 969.289062 253.40625 L 897.472656 561.320312 C 893.359375 579.140625 875.890625 593.132812 857.707031 593.132812 Z M 581.058594 245.347656 C 577.023438 245.347656 572.148438 249.335938 571.207031 253.40625 L 499.371094 561.320312 L 499.964844 562.445312 L 857.707031 562.445312 C 861.742188 562.445312 866.613281 558.457031 867.554688 554.386719 L 939.371094 246.449219 Z M 581.058594 245.347656 " fill-opacity="1" fill-rule="nonzero"/><path fill="#000000" d="M 806.410156 536.875 L 714.261719 536.875 C 705.785156 536.875 698.90625 530 698.90625 521.53125 C 698.90625 513.058594 705.785156 506.1875 714.261719 506.1875 L 806.289062 506.1875 C 814.765625 506.1875 821.707031 513.058594 821.707031 521.53125 C 821.707031 530 814.886719 536.875 806.410156 536.875 Z M 806.410156 536.875 " fill-opacity="1" fill-rule="nonzero"/><path fill="#000000" d="M 570.921875 547.101562 C 566.171875 547.101562 561.5 544.914062 558.492188 540.761719 C 553.515625 533.90625 555.03125 524.3125 561.890625 519.339844 L 723.3125 402.175781 L 624.40625 296.757812 C 618.613281 290.578125 618.917969 280.882812 625.125 275.070312 C 631.328125 269.261719 641.015625 269.589844 646.832031 275.765625 L 756.199219 392.359375 C 758.863281 395.199219 760.335938 398.964844 760.335938 402.851562 L 760.335938 405.449219 C 760.335938 410.359375 757.980469 414.984375 754.007812 417.847656 L 579.953125 544.15625 C 577.226562 546.140625 574.054688 547.101562 570.921875 547.101562 Z M 570.921875 547.101562 " fill-opacity="1" fill-rule="nonzero"/></svg>